<?xml version="1.0" encoding="UTF-8"?>
<svg id="_图层_1" xmlns="http://www.w3.org/2000/svg" version="1.1" viewBox="0 0 221 248">
  <!-- Generator: Adobe Illustrator 29.6.1, SVG Export Plug-In . SVG Version: 2.1.1 Build 9)  -->
  <defs>
    <style>
      .st0 {
        fill: #c49dc8;
      }
    </style>
  </defs>
  <path class="st0" d="M183.8,49.95c-1.73-1.73-3.52-3.4-5.37-5.02l-39.1,44.85c.83.72,1.63,1.47,2.4,2.24,8.72,8.72,14.11,20.76,14.11,34.07,0,26.6-21.57,48.17-48.17,48.17-13.3,0-25.35-5.39-34.07-14.11-8.72-8.72-14.11-20.76-14.11-34.06s5.39-25.35,14.11-34.07c.76-.76,1.55-1.5,2.36-2.21l-39.1-44.84C14.27,64.71,0,93.73,0,126.09c0,29.73,12.05,56.65,31.53,76.13,19.48,19.48,46.4,31.54,76.14,31.54s56.64-12.05,76.13-31.54c19.48-19.48,31.53-46.4,31.53-76.13s-12.05-56.65-31.53-76.14h0Z"/>
</svg>